<svg xmlns="http://www.w3.org/2000/svg" viewBox="0 0 40 40">
  <path d="M19.92 14.56a7.25 7.25 0 1 0 0-14.5 7.25 7.25 0 0 0 0 14.5zm-5.16 7.39s-2.18 5.91-2.81 7.07c-.21.38-.18.5-.72.5s-1.37-.5-1.37-.5-.39-.3-.24-.75c.47-1.47 2.66-10.1 3.12-11.75.5-1.77 1.86-1.7 1.86-1.7h1.3l4.19 7.27 4.2-7.28h1.56s.61.07 1.08.61c.46.55.56 1.47.56 1.47l2.78 10.78s.2.76.15.98c-.07.3-.27.37-.27.37s-.77.22-1.22.36c-.8.25-.95-.51-.95-.51l-2.57-6.78-.3 17.88h-3.9l-.65-10.2s-.12-.25-.47-.25-.47.25-.47.25l-.7 10.2h-3.88l-.28-18.02z" fill="#f0f000"/>
</svg>
