<?xml version="1.0" standalone="no"?><!DOCTYPE svg PUBLIC "-//W3C//DTD SVG 1.1//EN" "http://www.w3.org/Graphics/SVG/1.1/DTD/svg11.dtd"><svg t="1698095478249" class="icon" viewBox="0 0 1024 1024" version="1.1" xmlns="http://www.w3.org/2000/svg" p-id="1493" width="32" height="32" xmlns:xlink="http://www.w3.org/1999/xlink"><path d="M512 938.666667C276.352 938.666667 85.333333 747.648 85.333333 512S276.352 85.333333 512 85.333333s426.666667 191.018667 426.666667 426.666667-191.018667 426.666667-426.666667 426.666667z m-212.778667-159.744A339.882667 339.882667 0 0 0 512 853.333333a340.053333 340.053333 0 0 0 220.458667-80.725333A297.728 297.728 0 0 0 518.826667 682.666667a297.898667 297.898667 0 0 0-219.605334 96.256zM239.616 717.653333A382.933333 382.933333 0 0 1 518.826667 597.333333a382.805333 382.805333 0 0 1 271.445333 112.384 341.333333 341.333333 0 1 0-550.656 7.978667v-0.042667zM512 554.666667a170.666667 170.666667 0 1 1 0-341.333334 170.666667 170.666667 0 0 1 0 341.333334z m0-85.333334a85.333333 85.333333 0 1 0 0-170.666666 85.333333 85.333333 0 0 0 0 170.666666z" p-id="1494" fill="#057add"></path></svg>